<svg width="291" height="252" viewBox="0 0 291 252" fill="none" xmlns="http://www.w3.org/2000/svg">
<g opacity="0.9">
<path d="M208.4 206.5C189.9 206.5 174.8 191.4 174.8 172.9C174.8 163.5 177.7 155.9 183.4 150.4C185 148.9 186.7 147.6 188.5 146.5C186.9 144.8 186.1 142.5 186.3 140C186.8 135.3 190.9 131.9 195.6 132.4C203 133.1 211.7 136.2 219.3 140.6C220.5 140.6 221.7 140.7 222.8 140.7C227.5 140.8 231.2 144.7 231 149.4C231 149.5 231 149.5 231 149.5C237.8 156.3 241.6 164.3 242 172.5C242.5 181.8 239.5 190 233.6 196.3C227.4 202.7 218.2 206.5 208.4 206.5ZM214.2 157.4C207.1 157.5 199.2 158.5 195.2 162.5C192.9 164.8 191.7 168.1 191.7 172.8C191.7 182 199.2 189.5 208.4 189.5C213.6 189.5 218.3 187.7 221.3 184.5C224 181.6 225.3 177.8 225.1 173.3C224.7 166 218.2 160.2 214.2 157.4Z" fill="#F9B21D"/>
</g>
<path d="M76.6 251.5C67.4 251.5 58.6 248.1 51.9 241.9C45.2 235.7 40.9 227.3 40 218.2L38.9 206.5L31.3 205.2C11.8 201.8 -1.4 183.9 0.999998 164.3L9.1 100.3C9.7 95.4 12.1 91.1 15.8 88.1C19.1 85.5 23.3 84.1 27.6 84.2C31.9 84.3 36.1 85.8 39.3 88.5C42.9 91.5 45.2 95.9 45.6 100.8L56.8 216.6C57.8 226.8 66.3 234.5 76.5 234.5H253.8C259.5 234.5 264.7 232.2 268.5 228C272.3 223.8 274.1 218.4 273.5 212.8L256.4 35.4C255.4 25.2 246.9 17.5 236.7 17.5H59.4C53.7 17.5 48.5 19.8 44.7 24C40.9 28.2 39.1 33.6 39.6 39.2L40.7 50.8C40.8 51.5 41.4 52.1 42.1 52.1H222.2C226.9 52.1 230.7 55.9 230.7 60.6C230.7 65.3 227 69 222.3 69H42.3C32.8 69 24.9 61.9 24 52.4L22.9 40.8C21.9 30.5 25.3 20.2 32.3 12.5C39.3 4.80002 49.2 0.400024 59.5 0.400024H236.8C246 0.400024 254.8 3.80002 261.5 10C268.3 16.2 272.5 24.6 273.4 33.7L290.6 211.1C291.6 221.4 288.2 231.7 281.2 239.4C274.2 247.1 264.3 251.5 254 251.5H76.6ZM27.3 101.3C26.1 101.3 26 102 25.9 102.5L17.9 166.4C16.6 176.9 23.7 186.6 34.2 188.4L37.2 188.9L28.8 102.5C28.7 102 28.7 101.3 27.3 101.3C27.4 101.3 27.4 101.3 27.3 101.3Z" fill="#226DB4"/>
</svg>
